<?xml version="1.0" encoding="UTF-8" standalone="no"?>
<!-- Generator: Adobe Illustrator 19.2.1, SVG Export Plug-In . SVG Version: 6.00 Build 0)  -->
<svg xmlns:dc="http://purl.org/dc/elements/1.1/" xmlns:cc="http://creativecommons.org/ns#" xmlns:rdf="http://www.w3.org/1999/02/22-rdf-syntax-ns#" xmlns:svg="http://www.w3.org/2000/svg" xmlns="http://www.w3.org/2000/svg" xmlns:sodipodi="http://sodipodi.sourceforge.net/DTD/sodipodi-0.dtd" xmlns:inkscape="http://www.inkscape.org/namespaces/inkscape" version="1.1" id="Layer_1" x="0px" y="0px" viewBox="0 0 600.00001 200" enable-background="new 0 0 595.3 595.3" xml:space="preserve" inkscape:version="0.91 r13725" sodipodi:docname="irif_horizontal.svg" width="600" height="200"><metadata id="metadata3939"><rdf:RDF><cc:Work rdf:about=""><dc:format>image/svg+xml</dc:format><dc:type rdf:resource="http://purl.org/dc/dcmitype/StillImage"/><dc:title/></cc:Work></rdf:RDF></metadata><defs id="defs3937"/><sodipodi:namedview pagecolor="#ffffff" bordercolor="#666666" borderopacity="1" objecttolerance="10" gridtolerance="10" guidetolerance="10" inkscape:pageopacity="0" inkscape:pageshadow="2" inkscape:window-width="928" inkscape:window-height="860" id="namedview3935" showgrid="false" inkscape:zoom="0.42870939" inkscape:cx="297.64999" inkscape:cy="297.64999" inkscape:window-x="0" inkscape:window-y="24" inkscape:window-maximized="0" inkscape:current-layer="Layer_1"/><g id="g3941" transform="translate(-5.0449152,-192.98093)"><path id="path3821" d="m 43.5,296.3 c -2.9,0 -5.3,-2.4 -5.3,-5.3 l 0,-48 c 0,-2.9 2.4,-5.3 5.3,-5.3 2.9,0 5.3,2.4 5.3,5.3 l 0,48 c -0.1,2.9 -2.4,5.3 -5.3,5.3 m 63.4,0 c -2.9,0 -5.3,-2.4 -5.3,-5.3 l 0,-48 c 0,-2.9 2.4,-5.3 5.3,-5.3 2.9,0 5.3,2.4 5.3,5.3 l 0,48 c -0.1,2.9 -2.4,5.3 -5.3,5.3 m 63.8,0 c -2.9,0 -5.3,-2.4 -5.3,-5.3 l 0,-48 c 0,-2.9 2.4,-5.3 5.3,-5.3 2.9,0 5.3,2.4 5.3,5.3 l 0,48 c 0,2.9 -2.4,5.3 -5.3,5.3 m 63.2,0 c -2.9,0 -5.3,-2.4 -5.3,-5.3 l 0,-48 c 0,-2.9 2.4,-5.3 5.3,-5.3 2.9,0 5.3,2.4 5.3,5.3 l 0,48 c 0,2.9 -2.4,5.3 -5.3,5.3" inkscape:connector-curvature="0" style="fill:#1d1d1b"/><circle id="ellipse3823" cy="244.10001" cx="122.4" r="6.3000002" style="fill:#1d1d1b"/><g id="g3825"><circle id="ellipse3827" cy="244.10001" cx="250.2" r="6.3000002" style="fill:#1d1d1b"/><circle id="ellipse3829" cy="260" cx="250.2" r="6.3000002" style="fill:#1d1d1b"/></g><path id="path3831" d="m 300.3,239.7 c -1.2,0 -2.2,1 -2.2,2.3 l 0,13.3 c 0,1.3 1,2.3 2.2,2.3 1.2,0 2.2,-1 2.2,-2.3 l 0,-13.3 c -0.1,-1.3 -1,-2.3 -2.2,-2.3 z" inkscape:connector-curvature="0" style="fill:#1d1d1b"/><path id="path3833" d="m 337.2,246.5 c -2.8,-0.8 -3.1,-1.1 -3.1,-1.8 0,-0.6 0.6,-1 1.6,-1 0.9,0 1.9,0.3 3.1,1.1 0.4,0.2 0.7,0.3 1.1,0.3 1.2,0 2.1,-0.9 2.1,-2.1 0,-0.8 -0.4,-1.4 -1,-1.8 -1.5,-1 -3.3,-1.6 -5.2,-1.6 -3.5,0 -5.9,2.2 -5.9,5.5 0,3.7 2.5,4.7 5.5,5.5 2.6,0.7 2.8,1.1 2.8,1.7 0,1 -1.3,1.1 -1.8,1.1 -1.3,0 -2.5,-0.5 -3.7,-1.4 -0.4,-0.3 -0.8,-0.4 -1.2,-0.4 -1.2,0 -2.1,0.9 -2.1,2.1 0,0.7 0.3,1.4 0.8,1.7 1.8,1.3 4,2.1 6.2,2.1 3.8,0 6.2,-2.2 6.2,-5.7 -0.1,-3.1 -2.2,-4.4 -5.4,-5.3 z" inkscape:connector-curvature="0" style="fill:#1d1d1b"/><path id="path3835" d="m 358.7,239.8 -10.1,0 c -1.1,0 -2,1 -2,2.1 0,1.1 0.9,2.1 2,2.1 l 2.9,0 0,11.2 c 0,1.3 1,2.3 2.2,2.3 1.2,0 2.2,-1 2.2,-2.3 l 0,-11.2 2.9,0 c 1.1,0 2,-1 2,-2.1 0,-1.1 -1,-2.1 -2.1,-2.1 z" inkscape:connector-curvature="0" style="fill:#1d1d1b"/><path id="path3837" d="m 368.2,239.7 c -1.2,0 -2.2,1 -2.2,2.3 l 0,13.3 c 0,1.3 1,2.3 2.2,2.3 1.2,0 2.2,-1 2.2,-2.3 l 0,-13.3 c 0,-1.3 -1,-2.3 -2.2,-2.3 z" inkscape:connector-curvature="0" style="fill:#1d1d1b"/><path id="path3839" d="m 387.8,239.8 -10.1,0 c -1.1,0 -2,1 -2,2.1 0,1.1 0.9,2.1 2,2.1 l 2.9,0 0,11.2 c 0,1.3 1,2.3 2.2,2.3 1.2,0 2.2,-1 2.2,-2.3 l 0,-11.2 2.9,0 c 1.1,0 2,-1 2,-2.1 0,-1.1 -0.9,-2.1 -2.1,-2.1 z" inkscape:connector-curvature="0" style="fill:#1d1d1b"/><path id="path3841" d="m 407.2,239.7 c -1.2,0 -2.2,1 -2.2,2.3 l 0,7.9 c 0,1.6 -0.5,3.6 -2.9,3.6 -2.4,0 -2.9,-2 -2.9,-3.7 l 0,-7.7 c 0,-1.3 -1,-2.3 -2.2,-2.3 -1.2,0 -2.2,1 -2.2,2.3 l 0,7.8 c 0,5 2.6,7.8 7.2,7.8 4.6,0 7.3,-2.9 7.3,-8 l 0,-7.7 c 0.1,-1.3 -0.9,-2.3 -2.1,-2.3 z" inkscape:connector-curvature="0" style="fill:#1d1d1b"/><path id="path3843" d="m 426.4,239.8 -10.1,0 c -1.1,0 -2,1 -2,2.1 0,1.1 0.9,2.1 2,2.1 l 2.9,0 0,11.2 c 0,1.3 1,2.3 2.2,2.3 1.2,0 2.2,-1 2.2,-2.3 l 0,-11.2 2.9,0 c 1.1,0 2,-1 2,-2.1 0,-1.1 -1,-2.1 -2.1,-2.1 z" inkscape:connector-curvature="0" style="fill:#1d1d1b"/><path id="path3845" d="m 303.8,271.6 -4.4,0 c -1.2,0 -2.2,1 -2.2,2.3 l 0,13 c 0,1.3 1,2.3 2.2,2.3 l 4.4,0 c 5.1,0 8.8,-3.7 8.8,-8.8 0,-5.1 -3.7,-8.8 -8.8,-8.8 z m 4.3,8.8 c 0,2.7 -1.7,4.5 -4.3,4.5 l -2.2,0 0,-9.2 2.2,0 c 2.6,0.1 4.3,1.9 4.3,4.7 z" inkscape:connector-curvature="0" style="fill:#1d1d1b"/><path id="path3847" d="m 329.3,285 -6.7,0 0,-2.6 5.5,0 c 1.1,0 2,-0.9 2,-2.1 0,-1.1 -0.9,-2.1 -2,-2.1 l -5.5,0 0,-2.5 6.5,0 c 1.1,0 2,-0.9 2,-2.1 0,-1.1 -0.9,-2.1 -2,-2.1 l -8.7,0 c -1.2,0 -2.2,1 -2.2,2.3 l 0,13 c 0,1.3 1,2.3 2.2,2.3 l 8.8,0 c 1.1,0 2,-0.9 2,-2.1 0.1,-1.1 -0.8,-2 -1.9,-2 z" inkscape:connector-curvature="0" style="fill:#1d1d1b"/><path id="path3849" d="m 355.6,282.8 c 1.9,-1 2.9,-2.8 2.9,-5.3 0,-1.7 -0.5,-3.1 -1.5,-4.1 -1.1,-1.2 -2.8,-1.8 -4.9,-1.8 l -5.4,0 c -1.2,0 -2.2,1 -2.2,2.3 l 0,13.1 c 0,1.3 1,2.3 2.2,2.3 1.2,0 2.2,-1 2.2,-2.3 l 0,-3.2 2.1,0 3.2,4.3 c 0.6,0.8 1.2,1.1 2.1,1.1 1,0 2.1,-0.8 2.1,-2.1 0,-0.7 -0.3,-1.2 -0.7,-1.7 l -2.1,-2.6 z m -1.5,-5 c 0,1.2 -0.8,1.9 -2.2,1.9 l -3.1,0 0,-3.9 3,0 c 1,0 2.3,0.3 2.3,2 z" inkscape:connector-curvature="0" style="fill:#1d1d1b"/><path id="path3851" d="m 375.2,285 -6.7,0 0,-2.6 5.5,0 c 1.1,0 2,-0.9 2,-2.1 0,-1.1 -0.9,-2.1 -2,-2.1 l -5.5,0 0,-2.5 6.5,0 c 1.1,0 2,-0.9 2,-2.1 0,-1.1 -0.9,-2.1 -2,-2.1 l -8.7,0 c -1.2,0 -2.2,1 -2.2,2.3 l 0,13 c 0,1.3 1,2.3 2.2,2.3 l 8.8,0 c 1.1,0 2,-0.9 2,-2.1 0.1,-1.1 -0.8,-2 -1.9,-2 z" inkscape:connector-curvature="0" style="fill:#1d1d1b"/><path id="path3853" d="m 395.1,283.4 c -0.5,0 -0.9,0.2 -1.3,0.5 -0.9,0.7 -1.7,1.2 -3.1,1.2 -2.3,0 -4.1,-2.1 -4.1,-4.8 0,-2.7 1.8,-4.8 4.1,-4.8 1.1,0 2,0.3 3,1.1 0.3,0.2 0.7,0.4 1.3,0.4 1.2,0 2.1,-1 2.1,-2.2 0,-0.7 -0.3,-1.4 -0.8,-1.8 -1.5,-1.2 -3.3,-1.8 -5.5,-1.8 -4.9,0 -8.6,3.9 -8.6,9.1 l 0,0 c 0,5.1 3.6,9 8.5,9 2.4,0 4.2,-0.7 5.9,-2.2 0.5,-0.4 0.7,-1 0.7,-1.6 -0.1,-1.1 -1,-2.1 -2.2,-2.1 z" inkscape:connector-curvature="0" style="fill:#1d1d1b"/><path id="path3855" d="m 414.9,271.4 c -1.2,0 -2.2,1 -2.2,2.3 l 0,4.5 -5.5,0 0,-4.5 c 0,-1.3 -1,-2.3 -2.2,-2.3 -1.2,0 -2.2,1 -2.2,2.3 l 0,13.3 c 0,1.3 1,2.3 2.2,2.3 1.2,0 2.2,-1 2.2,-2.3 l 0,-4.6 5.5,0 0,4.6 c 0,1.3 1,2.3 2.2,2.3 1.2,0 2.2,-1 2.2,-2.3 l 0,-13.3 c -0.1,-1.3 -1,-2.3 -2.2,-2.3 z" inkscape:connector-curvature="0" style="fill:#1d1d1b"/><path id="path3857" d="m 434.4,285 -6.7,0 0,-2.6 5.5,0 c 1.1,0 2,-0.9 2,-2.1 0,-1.1 -0.9,-2.1 -2,-2.1 l -5.5,0 0,-2.5 6.5,0 c 1.1,0 2,-0.9 2,-2.1 0,-1.1 -0.9,-2.1 -2,-2.1 l -8.7,0 c -1.2,0 -2.2,1 -2.2,2.3 l 0,13 c 0,1.3 1,2.3 2.2,2.3 l 8.8,0 c 1.1,0 2,-0.9 2,-2.1 0.1,-1.1 -0.8,-2 -1.9,-2 z" inkscape:connector-curvature="0" style="fill:#1d1d1b"/><path id="path3859" d="m 453.1,282.8 c 1.9,-1 2.9,-2.8 2.9,-5.3 0,-1.7 -0.5,-3.1 -1.5,-4.1 -1.1,-1.2 -2.8,-1.8 -4.9,-1.8 l -5.4,0 c -1.2,0 -2.2,1 -2.2,2.3 l 0,13.1 c 0,1.3 1,2.3 2.2,2.3 1.2,0 2.2,-1 2.2,-2.3 l 0,-3.2 2.1,0 3.2,4.3 c 0.6,0.8 1.2,1.1 2.1,1.1 1,0 2.1,-0.8 2.1,-2.1 0,-0.7 -0.3,-1.2 -0.7,-1.7 l -2.1,-2.6 z m -1.5,-5 c 0,1.2 -0.8,1.9 -2.2,1.9 l -3.1,0 0,-3.9 3,0 c 1.1,0 2.3,0.3 2.3,2 z" inkscape:connector-curvature="0" style="fill:#1d1d1b"/><path id="path3861" d="m 474.1,283.4 c -0.5,0 -0.9,0.2 -1.3,0.5 -0.9,0.7 -1.7,1.2 -3.1,1.2 -2.3,0 -4.1,-2.1 -4.1,-4.8 0,-2.7 1.8,-4.8 4.1,-4.8 1.1,0 2,0.3 3,1.1 0.3,0.2 0.7,0.4 1.3,0.4 1.2,0 2.1,-1 2.1,-2.2 0,-0.7 -0.3,-1.4 -0.8,-1.8 -1.5,-1.2 -3.3,-1.8 -5.5,-1.8 -4.9,0 -8.6,3.9 -8.6,9.1 l 0,0 c 0,5.1 3.6,9 8.5,9 2.4,0 4.2,-0.7 5.9,-2.2 0.5,-0.4 0.7,-1 0.7,-1.6 -0.1,-1.1 -1.1,-2.1 -2.2,-2.1 z" inkscape:connector-curvature="0" style="fill:#1d1d1b"/><path id="path3863" d="m 494.2,271.5 c -1.2,0 -2.2,1 -2.2,2.3 l 0,4.5 -5.5,0 0,-4.5 c 0,-1.3 -1,-2.3 -2.2,-2.3 -1.2,0 -2.2,1 -2.2,2.3 l 0,13.3 c 0,1.3 1,2.3 2.2,2.3 1.2,0 2.2,-1 2.2,-2.3 l 0,-4.6 5.5,0 0,4.6 c 0,1.3 1,2.3 2.2,2.3 1.2,0 2.2,-1 2.2,-2.3 l 0,-13.3 c 0,-1.3 -1,-2.3 -2.2,-2.3 z" inkscape:connector-curvature="0" style="fill:#1d1d1b"/><path id="path3865" d="m 513.4,285 -6.7,0 0,-2.6 5.5,0 c 1.1,0 2,-0.9 2,-2.1 0,-1.1 -0.9,-2.1 -2,-2.1 l -5.5,0 0,-2.5 6.5,0 c 1.1,0 2,-0.9 2,-2.1 0,-1.1 -0.9,-2.1 -2,-2.1 l -8.7,0 c -1.2,0 -2.2,1 -2.2,2.3 l 0,13 c 0,1.3 1,2.3 2.2,2.3 l 8.8,0 c 1.1,0 2,-0.9 2,-2.1 0.1,-1.1 -0.8,-2 -1.9,-2 z" inkscape:connector-curvature="0" style="fill:#1d1d1b"/><path id="path3867" d="m 308.2,316.8 -6.7,0 0,-2.6 5.5,0 c 1.1,0 2,-0.9 2,-2.1 0,-1.1 -0.9,-2.1 -2,-2.1 l -5.5,0 0,-2.5 6.5,0 c 1.1,0 2,-0.9 2,-2.1 0,-1.1 -0.9,-2.1 -2,-2.1 l -8.7,0 c -1.2,0 -2.2,1 -2.2,2.3 l 0,13 c 0,1.3 1,2.3 2.2,2.3 l 8.8,0 c 1.1,0 2,-0.9 2,-2.1 0.1,-1.1 -0.8,-2 -1.9,-2 z" inkscape:connector-curvature="0" style="fill:#1d1d1b"/><path id="path3869" d="m 328.5,303.2 c -1.2,0 -2.1,1 -2.1,2.3 l 0,7.2 -5.9,-8.2 c -0.5,-0.6 -1.1,-1.3 -2.1,-1.3 l -0.4,0 c -1.2,0 -2.2,1 -2.2,2.3 l 0,13.3 c 0,1.2 1,2.3 2.1,2.3 1.2,0 2.1,-1 2.1,-2.3 l 0,-7.6 6.1,8.5 c 0.5,0.6 1.1,1.3 2.1,1.3 l 0.1,0 c 1.2,0 2.2,-1 2.2,-2.3 l 0,-13.3 c 0.1,-1.2 -0.9,-2.2 -2,-2.2 z" inkscape:connector-curvature="0" style="fill:#1d1d1b"/><path id="path3871" d="m 322.1,239.6 c -1.2,0 -2.1,1 -2.1,2.3 l 0,7.2 -5.9,-8.2 c -0.5,-0.6 -1.1,-1.3 -2.1,-1.3 l -0.4,0 c -1.2,0 -2.2,1 -2.2,2.3 l 0,13.3 c 0,1.2 1,2.3 2.1,2.3 1.2,0 2.1,-1 2.1,-2.3 l 0,-7.6 6.1,8.5 c 0.5,0.6 1.1,1.3 2.1,1.3 l 0.1,0 c 1.2,0 2.2,-1 2.2,-2.3 l 0,-13.3 c 0.1,-1.2 -0.8,-2.2 -2,-2.2 z" inkscape:connector-curvature="0" style="fill:#1d1d1b"/><path id="path3873" d="m 347,303.2 c -1.2,0 -2.2,1 -2.2,2.3 l 0,13.3 c 0,1.3 1,2.3 2.2,2.3 1.2,0 2.2,-1 2.2,-2.3 l 0,-13.3 c 0,-1.3 -1,-2.3 -2.2,-2.3 z" inkscape:connector-curvature="0" style="fill:#1d1d1b"/><path id="path3875" d="m 380.3,303.3 c -1.2,0 -2.2,1 -2.2,2.3 l 0,13.3 c 0,1.3 1,2.3 2.2,2.3 1.2,0 2.2,-1 2.2,-2.3 l 0,-13.3 c -0.1,-1.3 -1,-2.3 -2.2,-2.3 z" inkscape:connector-curvature="0" style="fill:#1d1d1b"/><path id="path3877" d="m 369.3,303.2 c -1.2,0 -2.1,1 -2.1,2.3 l 0,7.2 -5.9,-8.2 c -0.5,-0.6 -1.1,-1.3 -2.1,-1.3 l -0.4,0 c -1.2,0 -2.2,1 -2.2,2.3 l 0,13.3 c 0,1.2 1,2.3 2.1,2.3 1.2,0 2.1,-1 2.1,-2.3 l 0,-7.6 6.1,8.5 c 0.5,0.6 1.1,1.3 2.1,1.3 l 0.1,0 c 1.2,0 2.2,-1 2.2,-2.3 l 0,-13.3 c 0.1,-1.2 -0.8,-2.2 -2,-2.2 z" inkscape:connector-curvature="0" style="fill:#1d1d1b"/><path id="path3879" d="m 401.2,303.1 c -4.9,0 -8.8,4 -8.8,9.1 0,5.1 3.8,9 8.7,9 4.9,0 8.8,-4 8.8,-9.1 0,-5.2 -3.8,-9 -8.7,-9 z m 4.2,9.1 c 0,2.7 -1.8,4.8 -4.3,4.8 -2.5,0 -4.3,-2.1 -4.3,-4.8 0,-2.7 1.8,-4.8 4.3,-4.8 2.5,-0.1 4.3,2 4.3,4.8 l 0,0 z" inkscape:connector-curvature="0" style="fill:#1d1d1b"/><path id="path3881" d="m 427.2,314.6 c 1.9,-1 2.9,-2.8 2.9,-5.3 0,-1.7 -0.5,-3.1 -1.5,-4.1 -1.1,-1.2 -2.8,-1.8 -4.9,-1.8 l -5.4,0 c -1.2,0 -2.2,1 -2.2,2.3 l 0,13.1 c 0,1.3 1,2.3 2.2,2.3 1.2,0 2.2,-1 2.2,-2.3 l 0,-3.2 2.1,0 3.2,4.3 c 0.6,0.8 1.2,1.1 2.1,1.1 1,0 2.1,-0.8 2.1,-2.1 0,-0.7 -0.3,-1.2 -0.7,-1.7 l -2.1,-2.6 z m -1.5,-5.1 c 0,1.2 -0.8,1.9 -2.2,1.9 l -3.1,0 0,-3.9 3,0 c 1.1,0 2.3,0.4 2.3,2 z" inkscape:connector-curvature="0" style="fill:#1d1d1b"/><path id="path3883" d="m 450.7,303.3 -0.4,0 c -0.8,0 -1.5,0.4 -1.9,1.1 l -3.8,6.6 -3.8,-6.6 c -0.4,-0.8 -1.1,-1.2 -2,-1.2 l -0.4,0 c -1.2,0 -2.2,1 -2.2,2.3 l 0,13.3 c 0,1.2 0.9,2.2 2.1,2.2 1.2,0 2.1,-1 2.1,-2.2 l 0,-6.7 2.2,3.5 c 0.5,0.8 1.1,1.1 1.8,1.1 0.7,0 1.3,-0.4 1.8,-1.1 l 2.2,-3.6 0,6.7 c 0,1.3 1,2.3 2.1,2.3 1.2,0 2.2,-1 2.2,-2.3 l 0,-13.2 c 0.1,-1.2 -0.8,-2.2 -2,-2.2 z" inkscape:connector-curvature="0" style="fill:#1d1d1b"/><path id="path3885" d="m 474.4,317.9 -5.5,-13.1 c -0.5,-1.1 -1.3,-1.7 -2.4,-1.7 l -0.2,0 c -1.1,0 -2,0.6 -2.4,1.7 l -5.5,13.1 c -0.1,0.3 -0.2,0.6 -0.2,1 0,1.2 0.9,2.2 2,2.2 0.9,0 1.6,-0.5 2,-1.4 l 1,-2.5 6.3,0 0.9,2.3 c 0.4,1 1.1,1.5 2.1,1.5 1.2,0 2.1,-1 2.1,-2.2 0,-0.2 -0.1,-0.5 -0.2,-0.9 z m -6.5,-4.9 -3,0 1.5,-3.9 1.5,3.9 z" inkscape:connector-curvature="0" style="fill:#1d1d1b"/><path id="path3887" d="m 489.2,303.3 -10.1,0 c -1.1,0 -2,1 -2,2.1 0,1.2 0.9,2.1 2,2.1 l 2.9,0 0,11.2 c 0,1.3 1,2.3 2.2,2.3 1.2,0 2.2,-1 2.2,-2.3 l 0,-11.2 2.9,0 c 1.1,0 2,-1 2,-2.1 -0.1,-1.1 -1,-2.1 -2.1,-2.1 z" inkscape:connector-curvature="0" style="fill:#1d1d1b"/><path id="path3889" d="m 498.7,303.2 c -1.2,0 -2.2,1 -2.2,2.3 l 0,13.3 c 0,1.3 1,2.3 2.2,2.3 1.2,0 2.2,-1 2.2,-2.3 l 0,-13.3 c 0,-1.3 -1,-2.3 -2.2,-2.3 z" inkscape:connector-curvature="0" style="fill:#1d1d1b"/><path id="path3891" d="m 515.5,303.1 c -4.9,0 -8.8,4 -8.8,9.1 l 0,0 c 0,2.5 0.9,4.9 2.6,6.6 1.6,1.6 3.7,2.5 6.1,2.5 0,0 0,0 0,0 5.3,0 8.8,-3.7 8.8,-9.1 0.1,-5.3 -3.7,-9.1 -8.7,-9.1 z m 4.3,9 0,0 c 0,4.6 -3.5,4.8 -4.3,4.8 -2.5,0 -4.3,-2.1 -4.3,-4.8 0,-2.7 1.8,-4.8 4.3,-4.8 2.5,0 4.3,2.1 4.3,4.8 z" inkscape:connector-curvature="0" style="fill:#1d1d1b"/><path id="path3893" d="m 542.2,303.2 c -1.2,0 -2.2,1 -2.2,2.3 l 0,7.9 c 0,1.6 -0.5,3.6 -2.9,3.6 -2.4,0 -2.9,-2 -2.9,-3.7 l 0,-7.7 c 0,-1.3 -1,-2.3 -2.2,-2.3 -1.2,0 -2.2,1 -2.2,2.3 l 0,7.8 c 0,5 2.6,7.8 7.2,7.8 4.6,0 7.3,-2.9 7.3,-8 l 0,-7.7 c 0,-1.3 -0.9,-2.3 -2.1,-2.3 z" inkscape:connector-curvature="0" style="fill:#1d1d1b"/><path id="path3895" d="m 561.5,316.8 -6.7,0 0,-2.6 5.5,0 c 1.1,0 2,-0.9 2,-2.1 0,-1.1 -0.9,-2.1 -2,-2.1 l -5.5,0 0,-2.5 6.5,0 c 1.1,0 2,-0.9 2,-2.1 0,-1.1 -0.9,-2.1 -2,-2.1 l -8.7,0 c -1.2,0 -2.2,1 -2.2,2.3 l 0,13 c 0,1.3 1,2.3 2.2,2.3 l 8.8,0 c 1.1,0 2,-0.9 2,-2.1 0.1,-1.1 -0.8,-2 -1.9,-2 z" inkscape:connector-curvature="0" style="fill:#1d1d1b"/><circle id="circle3897" r="2.3" cy="322.10001" cx="523.40002" style="fill:#1d1d1b"/><g id="g3899"><circle id="circle3901" r="2.3" cy="305.5" cx="386" style="fill:#1d1d1b"/><circle id="circle3903" r="2.3" cy="311.5" cx="386" style="fill:#1d1d1b"/></g><path id="path3905" d="m 299.4,334.9 c -1.2,0 -2.2,1 -2.2,2.3 l 0,13.3 c 0,1.3 1,2.3 2.2,2.3 1.2,0 2.2,-1 2.2,-2.3 l 0,-13.3 c 0,-1.3 -1,-2.3 -2.2,-2.3 z" inkscape:connector-curvature="0" style="fill:#1d1d1b"/><g id="g3907"><circle id="circle3909" r="2.3" cy="337.20001" cx="305.10001" style="fill:#1d1d1b"/><circle id="circle3911" r="2.3" cy="343.20001" cx="305.10001" style="fill:#1d1d1b"/></g><path id="path3913" d="m 320.7,334.8 c -4.9,0 -8.8,4 -8.8,9.1 l 0,0 c 0,5.1 3.8,9 8.7,9 4.9,0 8.8,-4 8.8,-9.1 0,-5.1 -3.7,-9 -8.7,-9 z m 4.3,9.1 c 0,2.7 -1.8,4.8 -4.3,4.8 -2.5,0 -4.3,-2.1 -4.3,-4.8 0,-2.7 1.8,-4.8 4.3,-4.8 2.4,0 4.3,2.1 4.3,4.8 l 0,0 z" inkscape:connector-curvature="0" style="fill:#1d1d1b"/><path id="path3915" d="m 347.9,335 c -1.2,0 -2.1,1 -2.1,2.3 l 0,7.2 -5.9,-8.2 c -0.5,-0.6 -1.1,-1.3 -2.1,-1.3 l -0.4,0 c -1.2,0 -2.2,1 -2.2,2.3 l 0,13.3 c 0,1.2 1,2.3 2.1,2.3 1.2,0 2.1,-1 2.1,-2.3 l 0,-7.6 6.1,8.5 c 0.5,0.6 1.1,1.3 2.1,1.3 l 0.1,0 c 1.2,0 2.2,-1 2.2,-2.3 l 0,-13.3 C 350,336 349,335 347.9,335 Z" inkscape:connector-curvature="0" style="fill:#1d1d1b"/><path id="path3917" d="m 363,335.1 -4.4,0 c -1.2,0 -2.2,1 -2.2,2.3 l 0,13 c 0,1.3 1,2.3 2.2,2.3 l 4.4,0 c 5.1,0 8.8,-3.7 8.8,-8.8 0,-5.1 -3.7,-8.8 -8.8,-8.8 z m 4.3,8.8 c 0,2.7 -1.7,4.5 -4.3,4.5 l -2.2,0 0,-9.2 2.2,0 c 2.6,0.1 4.3,1.9 4.3,4.7 z" inkscape:connector-curvature="0" style="fill:#1d1d1b"/><path id="path3919" d="m 411.9,335 -0.4,0 c -0.8,0 -1.5,0.4 -1.9,1.1 l -3.8,6.6 -3.8,-6.6 c -0.4,-0.8 -1.1,-1.2 -2,-1.2 l -0.4,0 c -1.2,0 -2.2,1 -2.2,2.3 l 0,13.3 c 0,1.2 0.9,2.2 2.1,2.2 1.2,0 2.1,-1 2.1,-2.2 l 0,-6.7 2.2,3.5 c 0.5,0.8 1.1,1.1 1.8,1.1 0.7,0 1.3,-0.4 1.8,-1.1 l 2.2,-3.6 0,6.7 c 0,1.3 1,2.3 2.1,2.3 1.2,0 2.2,-1 2.2,-2.3 l 0,-13.2 c 0.2,-1.2 -0.7,-2.2 -2,-2.2 z" inkscape:connector-curvature="0" style="fill:#1d1d1b"/><path id="path3921" d="m 431.5,348.5 -6.7,0 0,-2.6 5.5,0 c 1.1,0 2,-0.9 2,-2.1 0,-1.1 -0.9,-2.1 -2,-2.1 l -5.5,0 0,-2.5 6.5,0 c 1.1,0 2,-0.9 2,-2.1 0,-1.1 -0.9,-2.1 -2,-2.1 l -8.7,0 c -1.2,0 -2.2,1 -2.2,2.3 l 0,13 c 0,1.3 1,2.3 2.2,2.3 l 8.8,0 c 1.1,0 2,-0.9 2,-2.1 0.1,-1 -0.8,-2 -1.9,-2 z" inkscape:connector-curvature="0" style="fill:#1d1d1b"/><path id="path3923" d="m 451.8,335 c -1.2,0 -2.1,1 -2.1,2.3 l 0,7.2 -5.9,-8.2 c -0.5,-0.6 -1.1,-1.3 -2.1,-1.3 l -0.4,0 c -1.2,0 -2.2,1 -2.2,2.3 l 0,13.3 c 0,1.2 1,2.3 2.1,2.3 1.1,0 2.1,-1 2.1,-2.3 l 0,-7.6 6.1,8.5 c 0.5,0.6 1.1,1.3 2.1,1.3 l 0.1,0 c 1.2,0 2.2,-1 2.2,-2.3 l 0,-13.3 c 0.1,-1.2 -0.8,-2.2 -2,-2.2 z" inkscape:connector-curvature="0" style="fill:#1d1d1b"/><path id="path3925" d="m 471.2,335.1 -10.1,0 c -1.1,0 -2,1 -2,2.1 0,1.2 0.9,2.1 2,2.1 l 2.9,0 0,11.2 c 0,1.3 1,2.3 2.2,2.3 1.2,0 2.2,-1 2.2,-2.3 l 0,-11.2 2.9,0 c 1.1,0 2,-1 2,-2.1 -0.1,-1.1 -1,-2.1 -2.1,-2.1 z" inkscape:connector-curvature="0" style="fill:#1d1d1b"/><path id="path3927" d="m 491.9,349.7 -5.5,-13.1 c -0.5,-1.1 -1.3,-1.7 -2.4,-1.7 l -0.2,0 c -1.1,0 -2,0.6 -2.4,1.7 l -5.5,13.1 c -0.1,0.3 -0.2,0.6 -0.2,1 0,1.2 0.9,2.2 2,2.2 0.9,0 1.6,-0.5 2,-1.4 l 1,-2.5 6.3,0 0.9,2.3 c 0.4,1 1.1,1.5 2.1,1.5 1.2,0 2.1,-1 2.1,-2.2 0,-0.3 -0.1,-0.6 -0.2,-0.9 z m -6.5,-4.9 -3,0 1.5,-3.9 1.5,3.9 z" inkscape:connector-curvature="0" style="fill:#1d1d1b"/><path id="path3929" d="m 391.8,349.7 -5.5,-13.1 c -0.5,-1.1 -1.3,-1.7 -2.4,-1.7 l -0.2,0 c -1.1,0 -2,0.6 -2.4,1.7 l -5.5,13.1 c -0.1,0.3 -0.2,0.6 -0.2,1 0,1.2 0.9,2.2 2,2.2 0.9,0 1.6,-0.5 2,-1.4 l 1,-2.5 6.3,0 0.9,2.3 c 0.4,1 1.1,1.5 2.1,1.5 1.2,0 2.1,-1 2.1,-2.2 0,-0.3 -0.1,-0.6 -0.2,-0.9 z m -6.5,-4.9 -3,0 1.5,-3.9 1.5,3.9 z" inkscape:connector-curvature="0" style="fill:#1d1d1b"/><path id="path3931" d="m 507.7,348.5 -5.9,0 0,-11.2 c 0,-1.3 -1,-2.3 -2.2,-2.3 -1.2,0 -2.2,1 -2.2,2.3 l 0,13.1 c 0,1.3 1,2.3 2.2,2.3 l 8.1,0 c 1.1,0 2,-0.9 2,-2.1 0,-1.2 -0.9,-2.1 -2,-2.1 z" inkscape:connector-curvature="0" style="fill:#1d1d1b"/><path id="path3933" d="m 525.8,348.5 -6.7,0 0,-2.6 5.5,0 c 1.1,0 2,-0.9 2,-2.1 0,-1.1 -0.9,-2.1 -2,-2.1 l -5.5,0 0,-2.5 6.5,0 c 1.1,0 2,-0.9 2,-2.1 0,-1.1 -0.9,-2.1 -2,-2.1 l -8.6,0 c -1.2,0 -2.2,1 -2.2,2.3 l 0,13 c 0,1.3 1,2.3 2.2,2.3 l 8.8,0 c 1.1,0 2,-0.9 2,-2.1 0,-1 -0.9,-2 -2,-2 z" inkscape:connector-curvature="0" style="fill:#1d1d1b"/></g></svg>